<?xml version="1.0" encoding="UTF-8" standalone="no"?>
<!-- Generator: Adobe Illustrator 19.0.0, SVG Export Plug-In . SVG Version: 6.00 Build 0)  -->

<svg
        xmlns:dc="http://purl.org/dc/elements/1.1/"
        xmlns:cc="http://creativecommons.org/ns#"
        xmlns:rdf="http://www.w3.org/1999/02/22-rdf-syntax-ns#"
        xmlns="http://www.w3.org/2000/svg"
        xmlns:sodipodi="http://sodipodi.sourceforge.net/DTD/sodipodi-0.dtd"
        xmlns:inkscape="http://www.inkscape.org/namespaces/inkscape"
        version="1.1"
        id="Capa_1"
        x="0px"
        y="0px"
        viewBox="0 0 49.999999 29.999999"
        xml:space="preserve"
        sodipodi:docname="image404.svg"
        width="50"
        height="30"
        inkscape:version="0.92.4 (unknown)"><metadata
   id="metadata47"><rdf:RDF><cc:Work
       rdf:about=""><dc:format>image/svg+xml</dc:format><dc:type
         rdf:resource="http://purl.org/dc/dcmitype/StillImage" /><dc:title></dc:title></cc:Work></rdf:RDF></metadata><defs
   id="defs45" /><sodipodi:namedview
   pagecolor="#ffffff"
   bordercolor="#666666"
   borderopacity="1"
   objecttolerance="10"
   gridtolerance="10"
   guidetolerance="10"
   inkscape:pageopacity="0"
   inkscape:pageshadow="2"
   inkscape:window-width="1366"
   inkscape:window-height="736"
   id="namedview43"
   showgrid="false"
   units="px"
   inkscape:zoom="8.7767004"
   inkscape:cx="42.425565"
   inkscape:cy="27.193099"
   inkscape:window-x="0"
   inkscape:window-y="0"
   inkscape:window-maximized="1"
   inkscape:current-layer="Capa_1" />

















<rect
   style="opacity:1;fill:#f2f2f2;fill-opacity:1;stroke:none;stroke-width:0.24846342;stroke-miterlimit:4;stroke-dasharray:none;stroke-opacity:0.7254902"
   id="rect852"
   width="50"
   height="30"
   x="0"
   y="-1.2397766e-05" /><g
   id="g10"
   transform="matrix(0.03624334,0,0,0.03383362,17.202,7.571813)"
   style="fill:#b3b3b3">
	<g
   id="g8"
   style="fill:#b3b3b3">
		<g
   id="g6"
   style="fill:#b3b3b3">
			<path
   d="m 217.875,159.668 c -24.237,0 -43.886,19.648 -43.886,43.886 0,24.237 19.648,43.886 43.886,43.886 24.237,0 43.886,-19.648 43.886,-43.886 0,-24.238 -19.648,-43.886 -43.886,-43.886 z m 0,66.873 c -12.696,0 -22.988,-10.292 -22.988,-22.988 0,-12.696 10.292,-22.988 22.988,-22.988 v 0 c 12.696,0 22.988,10.292 22.988,22.988 0,12.696 -10.292,22.988 -22.988,22.988 z"
   id="path2"
   inkscape:connector-curvature="0"
   style="fill:#b3b3b3" />
			<path
   d="M 392.896,59.357 107.639,26.966 C 96.568,25.392 85.351,28.624 76.815,35.848 68.28,42.466 62.809,52.276 61.664,63.015 L 56.44,105.856 H 40.243 c -22.988,0 -40.229,20.375 -40.229,43.363 V 362.9 c -0.579,21.921 16.722,40.162 38.644,40.741 0.528,0.014 1.057,0.017 1.585,0.01 h 286.824 c 22.988,0 43.886,-17.763 43.886,-40.751 v -8.359 c 7.127,-1.377 13.888,-4.224 19.853,-8.359 8.465,-7.127 13.885,-17.22 15.151,-28.212 L 429.99,105.856 C 432.44,82.815 415.905,62.088 392.896,59.357 Z M 350.055,362.9 c 0,11.494 -11.494,19.853 -22.988,19.853 H 40.243 c -10.383,0.305 -19.047,-7.865 -19.352,-18.248 -0.016,-0.535 -0.009,-1.07 0.021,-1.605 v -38.661 l 80.98,-59.559 c 9.728,-7.469 23.43,-6.805 32.392,1.567 l 56.947,50.155 c 8.648,7.261 19.534,11.32 30.825,11.494 8.828,0.108 17.511,-2.243 25.078,-6.792 L 350.056,261.545 V 362.9 Z m 0,-125.91 -113.894,66.351 c -9.78,5.794 -22.159,4.745 -30.825,-2.612 L 147.867,250.051 C 131.396,235.898 107.322,235.03 89.875,247.961 L 20.912,298.116 V 149.219 c 0,-11.494 7.837,-22.465 19.331,-22.465 h 286.824 c 12.28,0.509 22.197,10.201 22.988,22.465 z m 59.057,-133.955 c -0.007,0.069 -0.013,0.139 -0.021,0.208 l -24.555,212.114 c 0.042,5.5 -2.466,10.709 -6.792,14.106 -2.09,2.09 -6.792,3.135 -6.792,4.18 V 149.219 c -0.825,-23.801 -20.077,-42.824 -43.886,-43.363 H 77.337 l 4.702,-40.751 c 1.02,-5.277 3.779,-10.059 7.837,-13.584 4.582,-3.168 10.122,-4.645 15.674,-4.18 l 284.735,32.914 c 11.488,1.091 19.918,11.29 18.827,22.78 z"
   id="path4"
   inkscape:connector-curvature="0"
   style="fill:#b3b3b3" />
		</g>
	</g>
</g><g
   id="g12"
   transform="matrix(0.09297352,0,0,0.09297352,0,-10.000011)">
</g><g
   id="g14"
   transform="matrix(0.09297352,0,0,0.09297352,0,-10.000011)">
</g><g
   id="g16"
   transform="matrix(0.09297352,0,0,0.09297352,0,-10.000011)">
</g><g
   id="g18"
   transform="matrix(0.09297352,0,0,0.09297352,0,-10.000011)">
</g><g
   id="g20"
   transform="matrix(0.09297352,0,0,0.09297352,0,-10.000011)">
</g><g
   id="g22"
   transform="matrix(0.09297352,0,0,0.09297352,0,-10.000011)">
</g><g
   id="g24"
   transform="matrix(0.09297352,0,0,0.09297352,0,-10.000011)">
</g><g
   id="g26"
   transform="matrix(0.09297352,0,0,0.09297352,0,-10.000011)">
</g><g
   id="g28"
   transform="matrix(0.09297352,0,0,0.09297352,0,-10.000011)">
</g><g
   id="g30"
   transform="matrix(0.09297352,0,0,0.09297352,0,-10.000011)">
</g><g
   id="g32"
   transform="matrix(0.09297352,0,0,0.09297352,0,-10.000011)">
</g><g
   id="g34"
   transform="matrix(0.09297352,0,0,0.09297352,0,-10.000011)">
</g><g
   id="g36"
   transform="matrix(0.09297352,0,0,0.09297352,0,-10.000011)">
</g><g
   id="g38"
   transform="matrix(0.09297352,0,0,0.09297352,0,-10.000011)">
</g><g
   id="g40"
   transform="matrix(0.09297352,0,0,0.09297352,0,-10.000011)">
</g><g
   id="g951"
   style="fill:#808080"
   transform="matrix(0.09297352,0,0,0.09297352,0,-10.000011)" /></svg>
